Coordinates
version=1
nRows=20
nColumns=26
inDegrees=yes

Units are S.I. units (second, meters, Newtons, ...)
Angles are in degrees.

endheader
time	pelvis_tilt	pelvis_list	pelvis_rotation	pelvis_tx	pelvis_ty	pelvis_tz	hip_flexion_r	hip_adduction_r	hip_rotation_r	knee_angle_r	knee_angle_r_beta	ankle_angle_r	subtalar_angle_r	mtp_angle_r	hip_flexion_l	hip_adduction_l	hip_rotation_l	knee_angle_l	knee_angle_l_beta	ankle_angle_l	subtalar_angle_l	mtp_angle_l	lumbar_extension	lumbar_bending	lumbar_rotation
    232.06970050	    -17.18478376	      1.41054869	     -3.16333808	      0.24910664	      1.02801408	      0.22901044	     41.58545570	      3.20609750	     -4.34287680	     13.12152943	     13.12152943	      8.03146897	      6.59064156	      0.00000000	     -7.71430387	      5.63067388	     -1.34349967	     29.88221196	     29.88221196	    -20.75357563	    -15.00153815	      0.00000000	      6.87392732	     -0.14963785	     -8.30961714
    232.07970050	    -16.48457250	      1.52305067	     -3.48442951	      0.24877174	      1.02527360	      0.22914854	     40.76382051	      3.38784903	     -4.78756505	     13.15097615	     13.15097615	      8.42570691	      6.13386961	      0.00000000	     -6.99566067	      5.85797503	     -1.33835570	     34.72651912	     34.72651912	    -20.39760408	    -15.69900519	      0.00000000	      5.80900341	     -0.13342253	     -8.18643942
    232.08970050	    -15.73894810	      1.75404729	     -3.80881196	      0.24829291	      1.02161270	      0.22851093	     40.00588970	      3.39209373	     -4.78475076	     14.15311553	     14.15311553	      8.63122262	      4.94834817	      0.00000000	     -5.95919973	      6.32226073	     -1.12055358	     39.93334392	     39.93334392	    -20.54882796	    -16.53940548	      0.00000000	      4.69373380	     -0.13782874	     -8.04815415
    232.09970050	    -15.08513984	      1.90135056	     -4.15140475	      0.24753992	      1.01694528	      0.22765240	     39.26823841	      3.43122285	     -4.15101998	     15.64835512	     15.64835512	      8.48598304	      3.75324604	      0.00000000	     -4.46112443	      6.66680939	     -1.07958882	     45.52782499	     45.52782499	    -20.70498640	    -17.41290670	      0.00000000	      3.65439237	     -0.01614867	     -7.78644545
    232.10970050	    -14.68273837	      1.62924975	     -4.47621073	      0.24619864	      1.01148295	      0.22697168	     38.85018407	      3.84782725	     -3.34452612	     17.88136052	     17.88136052	      6.74652081	      1.86518778	      0.00000000	     -2.41200090	      6.42439042	     -1.24871404	     51.42095642	     51.42095642	    -20.37766205	    -18.02086567	      0.00000000	      2.82428958	      0.57511421	     -7.38291475
    232.11970050	    -14.22371804	      1.07063655	     -4.68894867	      0.24480192	      1.00522182	      0.22630271	     38.57755507	      4.33966570	     -3.60756689	     21.01596008	     21.01596008	      3.51415454	     -0.24732667	      0.00000000	     -0.36290825	      5.73853455	     -1.47170744	     57.25245246	     57.25245246	    -19.89952593	    -18.92252481	      0.00000000	      1.89398753	      1.46850707	     -6.96746755
    232.12970050	    -14.01874985	      0.32786878	     -4.84047008	      0.24281828	      0.99784219	      0.22608837	     38.71392580	      5.09104993	     -3.71687523	     24.46776747	     24.46776747	      0.58543265	     -3.26509714	      0.00000000	      2.09104836	      4.61775269	     -1.83626108	     63.10817473	     63.10817473	    -19.08817850	    -19.89113921	      0.00000000	      1.20315131	      2.44373290	     -6.54989202
    232.13970050	    -14.22947106	     -0.58012751	     -5.23721029	      0.23956418	      0.98962964	      0.22694726	     39.75362390	      6.49255708	     -2.79876267	     29.01854349	     29.01854349	      1.43829460	     -6.59720218	      0.00000000	      5.18983217	      3.00903829	     -2.44140470	     69.00391998	     69.00391998	    -17.81093250	    -20.57157882	      0.00000000	      0.82196844	      3.52131451	     -5.68543523
    232.14970050	    -14.28634270	     -1.23233704	     -5.54779216	      0.23613134	      0.98123694	      0.22753991	     41.07934286	      7.52274360	     -2.37736191	     34.96656183	     34.96656183	      4.59343001	     -8.75221271	      0.00000000	      8.19415326	      1.69388794	     -2.73515405	     74.51987883	     74.51987883	    -16.53898696	    -21.21893860	      0.00000000	      0.27160033	      4.28356722	     -4.78933694
    232.15970050	    -14.38923684	     -1.54674000	     -5.76098141	      0.23256528	      0.97313546	      0.22766220	     42.12906750	      8.13486140	     -1.65862559	     40.30447464	     40.30447464	      7.28562441	    -10.29832366	      0.00000000	     11.36577930	      0.85744048	     -2.71164089	     79.53707951	     79.53707951	    -15.63466061	    -22.05192715	      0.00000000	     -0.16262479	      4.69674396	     -3.78999571
    232.16970050	    -14.50677309	     -1.96664052	     -5.88467268	      0.22910213	      0.96616636	      0.22780914	     42.32858338	      8.72406398	     -1.04487039	     44.14633287	     44.14633287	      9.78171170	    -11.34128654	      0.00000000	     14.63871559	     -0.05690532	     -2.35048868	     84.06541865	     84.06541865	    -14.73440092	    -22.65885355	      0.00000000	     -0.57134173	      5.20084394	     -2.73999265
    232.17970050	    -14.72807796	     -2.37807567	     -5.75274945	      0.22575833	      0.96015609	      0.22792628	     41.89587848	      9.05078266	     -0.90541740	     46.82338081	     46.82338081	     12.81823897	    -11.26584040	      0.00000000	     18.17878383	     -0.92838390	     -1.60735788	     88.15952633	     88.15952633	    -13.74048733	    -22.80404496	      0.00000000	     -0.77132723	      5.60321671	     -1.97940876
    232.18970050	    -15.20968269	     -2.82649569	     -5.37463915	      0.22228343	      0.95501905	      0.22772648	     41.20009091	      9.23806224	     -1.20153131	     48.55829643	     48.55829643	     15.81402020	    -10.93088453	      0.00000000	     22.16929638	     -1.67445889	     -0.41290040	     91.81826368	     91.81826368	    -12.38229774	    -22.58910799	      0.00000000	     -0.61653365	      6.07989446	     -1.44408111
    232.19970050	    -15.86192452	     -3.30174764	     -4.79008160	      0.21892936	      0.95082997	      0.22722445	     40.41360369	      9.31933788	     -1.74196298	     49.79179422	     49.79179422	     18.34689920	    -10.62817995	      0.00000000	     26.43494932	     -2.25811311	      1.12450589	     94.89959607	     94.89959607	    -10.98338920	    -21.74285160	      0.00000000	     -0.15598794	      6.61068829	     -1.07844110
    232.20970050	    -16.39218989	     -3.65325620	     -4.16505734	      0.21628333	      0.94787446	      0.22648443	     39.19245924	      9.26571609	     -2.16465433	     50.53172933	     50.53172933	     20.55856935	    -10.19510084	      0.00000000	     30.46185086	     -2.45478492	      2.69322444	     97.18374800	     97.18374800	     -9.95790750	    -21.01289306	      0.00000000	      0.31603883	      6.98418153	     -0.60541157
    232.21970050	    -16.90916020	     -3.61346286	     -3.67878594	      0.21417649	      0.94618231	      0.22579224	     37.60374853	      8.92508815	     -2.27273482	     50.70403385	     50.70403385	     22.52898252	     -9.71310092	      0.00000000	     34.31755247	     -2.15242768	      3.93598589	     98.66029065	     98.66029065	     -8.85015113	    -20.02468606	      0.00000000	      0.91434812	      6.83638111	      0.18718582
    232.22970050	    -17.32859837	     -3.38916398	     -3.36867012	      0.21281202	      0.94617321	      0.22551189	     35.43785351	      8.57609132	     -1.98071061	     50.04902803	     50.04902803	     24.18503222	     -9.08947847	      0.00000000	     37.84836850	     -1.72920977	      4.83987337	     99.30623878	     99.30623878	     -7.67758001	    -18.64214398	      0.00000000	      1.49942219	      6.36682241	      1.23819116
    232.23970050	    -17.66689604	     -3.05921186	     -3.20303812	      0.21213140	      0.94785088	      0.22564448	     32.85010924	      8.28884739	     -1.32996300	     48.72780753	     48.72780753	     25.11036217	     -8.67136936	      0.00000000	     41.03352738	     -1.29739417	      5.37565864	     99.16258333	     99.16258333	     -6.70712749	    -17.69891248	      0.00000000	      2.06618230	      5.72024817	      2.68052003
    232.24970050	    -18.05431579	     -2.64393833	     -3.05767315	      0.21192734	      0.95099170	      0.22591203	     30.10925097	      7.91588211	     -0.65791587	     46.88843925	     46.88843925	     25.13875139	     -8.47269342	      0.00000000	     43.99516978	     -0.86718153	      5.61924171	     98.27190578	     98.27190578	     -6.00138683	    -17.16037975	      0.00000000	      2.75248606	      4.95772145	      4.18128889
    232.25970050	    -18.41166960	     -2.25442095	     -3.00658743	      0.21247350	      0.95561916	      0.22650567	     27.14973703	      7.62289919	      0.16398237	     44.59734407	     44.59734407	     24.19246794	     -8.38799375	      0.00000000	     46.57496426	     -0.63274639	      5.59100509	     96.65097097	     96.65097097	     -5.26233819	    -16.80794818	      0.00000000	      3.47226348	      4.20613482	      5.84411605
